<?xml version="1.0"?>
<svg xmlns="http://www.w3.org/2000/svg" xmlns:xlink="http://www.w3.org/1999/xlink" version="1.1" viewBox="0 0 191 191" width="30px" height="30px"><g fill="none" fill-rule="nonzero" stroke="none" stroke-width="1" stroke-linecap="butt" stroke-linejoin="miter" stroke-miterlimit="10" stroke-dasharray="" stroke-dashoffset="0" font-family="none" font-weight="none" font-size="none" text-anchor="none" style="mix-blend-mode: normal"><path d="M0,191.98863v-191.98863h191.98863v191.98863z" fill="none"/><g fill="#3498db"><path d="M152.8,25.46667h-114.6c-7.03517,0 -12.73333,5.69817 -12.73333,12.73333v114.6c0,7.03517 5.69817,12.73333 12.73333,12.73333h63.66667v-57.3h-19.1v-19.1h19.1v-10.2567c0,-19.41833 9.46087,-27.9433 25.60037,-27.9433c7.72913,0 11.81653,0.573 13.752,0.83403v18.26597h-11.00797c-6.85053,0 -9.2444,3.61627 -9.2444,10.93793v8.16207h20.08047l-2.72493,19.1h-17.35553v57.3h31.83333c7.03517,0 12.73333,-5.69817 12.73333,-12.73333v-114.6c0,-7.03517 -5.70453,-12.73333 -12.73333,-12.73333z"/></g></g></svg>
