<?xml version="1.0"?>
<svg xmlns="http://www.w3.org/2000/svg" xmlns:xlink="http://www.w3.org/1999/xlink" version="1.1" viewBox="0 0 191 191" width="50px" height="50px"><g fill="none" fill-rule="nonzero" stroke="none" stroke-width="1" stroke-linecap="butt" stroke-linejoin="miter" stroke-miterlimit="10" stroke-dasharray="" stroke-dashoffset="0" font-family="none" font-weight="none" font-size="none" text-anchor="none" style="mix-blend-mode: normal"><path d="M0,191.98863v-191.98863h191.98863v191.98863z" fill="none"/><g fill="#3498db"><path d="M61.12,11.46c-27.3894,0 -49.66,22.2706 -49.66,49.66v68.76c0,27.3894 22.2706,49.66 49.66,49.66h68.76c27.3894,0 49.66,-22.2706 49.66,-49.66v-68.76c0,-27.3894 -22.2706,-49.66 -49.66,-49.66zM141.34,42.02c4.202,0 7.64,3.438 7.64,7.64c0,4.202 -3.438,7.64 -7.64,7.64c-4.202,0 -7.64,-3.438 -7.64,-7.64c0,-4.202 3.438,-7.64 7.64,-7.64zM95.5,53.48c23.1874,0 42.02,18.8326 42.02,42.02c0,23.1874 -18.8326,42.02 -42.02,42.02c-23.1874,0 -42.02,-18.8326 -42.02,-42.02c0,-23.1874 18.8326,-42.02 42.02,-42.02zM95.5,61.12c-18.9472,0 -34.38,15.4328 -34.38,34.38c0,18.9472 15.4328,34.38 34.38,34.38c18.9472,0 34.38,-15.4328 34.38,-34.38c0,-18.9472 -15.4328,-34.38 -34.38,-34.38z"/></g></g></svg>
