<?xml version="1.0"?>
<svg xmlns="http://www.w3.org/2000/svg" xmlns:xlink="http://www.w3.org/1999/xlink" version="1.1" viewBox="0 0 191 191" width="50px" height="50px"><g fill="none" fill-rule="nonzero" stroke="none" stroke-width="1" stroke-linecap="butt" stroke-linejoin="miter" stroke-miterlimit="10" stroke-dasharray="" stroke-dashoffset="0" font-family="none" font-weight="none" font-size="none" text-anchor="none" style="mix-blend-mode: normal"><path d="M0,191.98863v-191.98863h191.98863v191.98863z" fill="none"/><g fill="#3498db"><path d="M61.12,11.46c-27.37991,0 -49.66,22.28009 -49.66,49.66v68.76c0,27.37991 22.28009,49.66 49.66,49.66h68.76c27.37991,0 49.66,-22.28009 49.66,-49.66v-68.76c0,-27.37991 -22.28009,-49.66 -49.66,-49.66zM61.12,19.1h68.76c23.25037,0 42.02,18.76963 42.02,42.02v68.76c0,23.25037 -18.76963,42.02 -42.02,42.02h-68.76c-23.25037,0 -42.02,-18.76963 -42.02,-42.02v-68.76c0,-23.25037 18.76963,-42.02 42.02,-42.02zM141.34,42.02c-4.21946,0 -7.64,3.42054 -7.64,7.64c0,4.21946 3.42054,7.64 7.64,7.64c4.21946,0 7.64,-3.42054 7.64,-7.64c0,-4.21946 -3.42054,-7.64 -7.64,-7.64zM95.5,53.48c-23.16176,0 -42.02,18.85824 -42.02,42.02c0,23.16176 18.85824,42.02 42.02,42.02c23.16176,0 42.02,-18.85824 42.02,-42.02c0,-23.16176 -18.85824,-42.02 -42.02,-42.02zM95.5,61.12c19.03279,0 34.38,15.34721 34.38,34.38c0,19.03279 -15.34721,34.38 -34.38,34.38c-19.03279,0 -34.38,-15.34721 -34.38,-34.38c0,-19.03279 15.34721,-34.38 34.38,-34.38z"/></g></g></svg>
